<?xml version="1.0" encoding="utf-8"?>
<svg version="1.1" id="Capa_1" xmlns="http://www.w3.org/2000/svg" xmlns:xlink="http://www.w3.org/1999/xlink" x="0px" y="0px"
	 viewBox="0 0 258.1 258.1" style="enable-background:new 0 0 258.1 258.1;" xml:space="preserve">
<g>
	<path d="M2.8,69.7c4.1-0.1,8.2-0.2,12.4,0c2.3,0.1,3-0.5,3-2.9C18,57.5,18,48.3,18,39.1c0-2.5,0-5.1,0-8.3
		c11.1,11.1,21.5,21.5,31.9,31.9C66.3,79.1,82.8,95.5,99.2,112c1.7,1.7,2.7,1.9,4.3,0c2.6-2.9,5.3-5.7,8.2-8.2
		c2.2-1.9,1.9-3-0.1-4.9c-22.6-22.5-45.1-45-67.6-67.5c-4.2-4.2-8.5-8.4-13.3-13.3c12.5,0,24.2-0.1,35.8,0.1c2.4,0,3.3-0.5,3.2-3
		c-0.2-4.1-0.2-8.2,0-12.4C69.7,0.5,69,0,66.9,0c-21.5,0.1-43,0.1-64.5,0C0.3,0,0,0.7,0,2.6C0.1,24,0.1,45.5,0,67
		C0,69.2,0.8,69.7,2.8,69.7z"/>
	<path d="M146.1,103.5c2.8,2.5,5.5,5.1,7.9,8c2.1,2.4,3.3,2.2,5.4,0C185.2,85.6,211,59.8,236.8,34c0.9-0.9,1.9-1.8,3.2-3
		c0,12.4,0,24.1,0,35.8c0,2,0.3,2.9,2.6,2.8c4.4-0.2,8.7-0.1,13.1,0c1.8,0,2.4-0.5,2.3-2.3c-0.1-21.7-0.1-43.5,0-65.2
		c0-1.6-0.4-2.1-2.1-2.1c-21.7,0.1-43.5,0.1-65.2,0c-1.8,0-2.4,0.6-2.3,2.4c0.1,3.9,0.2,7.8,0,11.6c-0.2,3.1,0.5,4.3,4,4.2
		c11.3-0.3,22.7-0.1,35-0.1c-10.7,10.7-20.8,20.7-30.8,30.8c-16.8,16.8-33.5,33.6-50.4,50.3C144.5,100.8,144.2,101.8,146.1,103.5z"
		/>
	<path d="M111.8,154.4c-2.8-2.3-5.3-4.9-7.7-7.7c-2-2.4-3.2-2.3-5.4-0.1c-25.7,25.9-51.5,51.6-77.3,77.4c-0.9,0.9-1.7,2-3.1,3.7
		c-0.1-1.7-0.2-2.2-0.2-2.6c0-11.2-0.1-22.5,0-33.7c0-2.3-0.5-3-2.9-2.9c-4.1,0.2-8.3,0.2-12.4,0c-2.4-0.1-2.8,0.8-2.8,3
		c0.1,21.4,0.1,42.7,0,64.1c0,1.8,0.2,2.6,2.4,2.6c21.6-0.1,43.2-0.1,64.8,0c2.1,0,2.5-0.8,2.4-2.6c-0.1-4.1-0.2-8.3,0-12.4
		c0.1-2.5-0.7-3.1-3.1-3.1c-11.6,0.1-23.2,0.1-35.8,0.1c4.8-4.8,8.9-8.9,13.1-13c22.6-22.6,45.2-45.2,67.9-67.8
		C113.5,157.4,114.1,156.3,111.8,154.4z"/>
	<path d="M258,195c0-6.5,0-6.6-6.7-6.5c-3.7,0.1-8.6-1.6-10.7,0.7c-1.8,2-0.6,6.9-0.6,10.5c0,8.9,0,17.9,0,26.8
		c-0.3,0.2-0.7,0.4-1,0.7c-0.7-1-1.3-2.1-2.1-3c-21.6-21.7-43.3-43.3-64.9-64.9c-4.4-4.4-8.9-8.7-13.2-13.3
		c-1.7-1.8-2.6-1.6-4.1,0.1c-2.2,2.5-4.7,4.8-7.1,7.2c-3.5,3.5-3.5,3.5,0.1,7.2c25.4,25.4,50.9,50.9,76.3,76.3
		c0.9,0.9,1.9,1.8,3.4,3.1c-1.4,0.1-1.9,0.2-2.3,0.2c-11.2,0-22.5,0.1-33.7,0c-2.2,0-3.1,0.5-3,2.9c0.2,4,0.2,8,0,12
		c-0.2,2.7,0.8,3.3,3.3,3.3c21-0.1,42-0.1,63,0c3,0,3.4-0.9,3.4-3.5C258,234.7,258,214.9,258,195z"/>
</g>
</svg>
