<!-- Generator: Adobe Illustrator 22.0.1, SVG Export Plug-In  -->
<svg version="1.1"
fill="#ff3c0086"
	 xmlns="http://www.w3.org/2000/svg" xmlns:xlink="http://www.w3.org/1999/xlink" xmlns:a="http://ns.adobe.com/AdobeSVGViewerExtensions/3.0/"
	 x="0px" y="0px" width="290.3px" height="294.2px" viewBox="0 0 290.3 294.2" style="enable-background:new 0 0 290.3 294.2;"
	 xml:space="preserve">
<defs>
</defs>
<path fill="#cbcbce" d="M290.2,147.6c0-55.2,0-88.5,0.1-143.7c0-3-0.6-3.9-4-3.9C206.7,0.1,127.1,0.1,47.5,0c-3.3,0-4.1,0.7-4.1,3.8
	c0.1,110.5,0.1,176,0,286.4c0,3.1,0.7,3.9,4,3.9c79.6-0.1,159.2-0.1,238.8,0c3.3,0,4.1-0.7,4-3.8
	C290.2,235.1,290.2,202.9,290.2,147.6z M237,240.3c-2,4.2-5.6,5.9-10.2,5.9c-23.6,0-47.2,0-70.8,0c-16.5,0-33,0-49.5,0
	c-5.3,0-9-2.8-10.4-7.5c-1.2-4.1,0.3-8.7,4.1-10.9c2-1.2,4.7-1.8,7-1.8c19.9-0.1,39.8-0.1,59.6-0.1c20.1,0,40.2,0,60.3,0
	C235.3,225.9,240.3,233.4,237,240.3z M220,142.3c-2,0.8-2.4,1.9-2.4,3.8c0.1,12.7,0,25.3,0,38c0,7.5-4,11.5-11.5,11.5
	c-13.1,0-26.2,0-39.3,0s-26.2,0-39.3,0c-7.4,0-11.5-4.1-11.6-11.5c0-12.7-0.1-25.3,0-38c0-2.1-0.7-3.1-2.7-3.9
	c-15.8-6.4-24.5-21.3-22.5-38.1c1.9-15.2,14.5-27.8,30.5-30.3c0.2,0,0.5-0.1,0.7-0.1c7.1,1.5,10.9-2.7,15.4-7.6
	c17.5-19.3,48.4-16.7,63.1,4.9c1.4,2,2.7,2.7,5.2,2.6c18.1-0.7,33.1,11,36.8,28.5C246,118.8,236.7,135.7,220,142.3z"/>
<path fill="#cbcbce" d="M28.4,4.2c0-0.6-0.1-1.3,0-1.9c0.3-1.8-0.6-2.3-2.9-2.3C18.7,0.2,11.7,0.3,4.8,0C0.9-0.1,0,0.7,0,3.9
	c0.1,55.2,0.1,88.5,0.1,143.7c0,55,0,87,0,142c0,0.8,0.1,1.5,0,2.2c-0.3,1.8,0.6,2.3,2.9,2.3c6.8-0.1,13.5-0.3,20.3,0
	c4.3,0.2,5.3-0.8,5.3-4.2C28.4,179.7,28.4,114.5,28.4,4.2z"/>
</svg>
